<?xml version="1.0" encoding="UTF-8" standalone="no"?>
<!-- Generator: Adobe Illustrator 16.0.0, SVG Export Plug-In . SVG Version: 6.00 Build 0)  -->

<svg
   xmlns:dc="http://purl.org/dc/elements/1.1/"
   xmlns:cc="http://creativecommons.org/ns#"
   xmlns:rdf="http://www.w3.org/1999/02/22-rdf-syntax-ns#"
   xmlns:svg="http://www.w3.org/2000/svg"
   xmlns="http://www.w3.org/2000/svg"
   xmlns:sodipodi="http://sodipodi.sourceforge.net/DTD/sodipodi-0.dtd"
   xmlns:inkscape="http://www.inkscape.org/namespaces/inkscape"
   version="1.1"
   id="Layer_1"
   x="0px"
   y="0px"
   width="465.375px"
   height="105.063px"
   viewBox="0 0 465.375 105.063"
   enable-background="new 0 0 465.375 105.063"
   xml:space="preserve"
   inkscape:version="0.92.3 (2405546, 2018-03-11)"
   sodipodi:docname="PyConPL19.svg"><metadata
   id="metadata47"><rdf:RDF><cc:Work
       rdf:about=""><dc:format>image/svg+xml</dc:format><dc:type
         rdf:resource="http://purl.org/dc/dcmitype/StillImage" /><dc:title /></cc:Work></rdf:RDF></metadata><defs
   id="defs45"><defs
     id="defs4"><inkscape:perspective
       inkscape:persp3d-origin="372.04724 : 350.78739 : 1"
       sodipodi:type="inkscape:persp3d"
       inkscape:vp_x="0 : 526.18109 : 1"
       inkscape:vp_y="0 : 1000 : 0"
       inkscape:vp_z="744.09448 : 526.18109 : 1"
       id="perspective2432" /></defs><sodipodi:namedview
     inkscape:window-width="1227"
     inkscape:window-height="776"
     inkscape:window-x="53"
     inkscape:window-y="24"
     inkscape:window-maximized="1"
     inkscape:showpageshadow="true"
     inkscape:guide-bbox="true"
     inkscape:pageopacity="0.23137255"
     inkscape:pageshadow="2"
     inkscape:current-layer="layer1"
     inkscape:document-units="px"
     id="base"
     pagecolor="#000000"
     bordercolor="#666666"
     borderopacity="1.0"
     gridtolerance="10000"
     guidetolerance="10"
     objecttolerance="10"
     inkscape:zoom="1.979899"
     inkscape:cx="226.36091"
     inkscape:cy="42.369392"
     showgrid="false"
     borderlayer="false"
     showborder="true"
     showguides="true"><sodipodi:guide
       id="guide3129"
       orientation="0,1"
       position="386.40625,69.330357" /><sodipodi:guide
       id="guide3131"
       orientation="0,1"
       position="386.51786,32.321428" /></sodipodi:namedview></defs><sodipodi:namedview
   pagecolor="#ffffff"
   bordercolor="#666666"
   borderopacity="1"
   objecttolerance="10"
   gridtolerance="10"
   guidetolerance="10"
   inkscape:pageopacity="0"
   inkscape:pageshadow="2"
   inkscape:window-width="1600"
   inkscape:window-height="836"
   id="namedview43"
   showgrid="false"
   inkscape:zoom="1"
   inkscape:cx="431.67619"
   inkscape:cy="3.8669176"
   inkscape:window-x="0"
   inkscape:window-y="27"
   inkscape:window-maximized="1"
   inkscape:current-layer="Layer_1" /><rect
   style="opacity:1;fill:#000000;fill-opacity:1;stroke:none;stroke-width:3;stroke-miterlimit:4;stroke-dasharray:none;stroke-opacity:1"
   id="rect4493"
   width="637"
   height="250.00002"
   x="-100.69238"
   y="-271.71204" /><g
   aria-label="9"
   transform="scale(0.99994881,1.0000512)"
   style="font-style:normal;font-variant:normal;font-weight:normal;font-stretch:normal;font-size:52.70228958px;line-height:1.25;font-family:Denmark;-inkscape-font-specification:Denmark;letter-spacing:0px;word-spacing:0px;fill:#ffffff;fill-opacity:1;stroke:none;stroke-width:4.49167204"
   id="text34"><path
     d="m 453.77126,56.8028 q 0,8.379664 -3.68916,14.176916 -4.42699,7.009404 -12.70125,7.009404 h -18.70931 l 0.1054,-6.798595 h 14.96745 q 0.79054,0 1.21216,0 2.4243,0 3.63645,-0.316214 1.73918,-0.47432 3.16214,-1.897282 1.10675,-1.106748 1.68648,-2.582412 0.63242,-1.528367 0.63242,-2.635115 l 0.21081,-1.528366 h -16.70662 q -5.00672,0 -8.06345,-2.898626 -3.05674,-2.898626 -3.05674,-7.272916 0,-0.68513 0.0527,-1.001343 0.52702,-5.955359 5.79725,-8.748581 4.47969,-2.371603 11.75261,-2.371603 9.11749,0 13.808,3.689161 5.11212,4.058076 5.90265,13.175572 z m -9.48641,-1.001343 q 0,-2.898626 -1.05404,-5.006718 -1.00135,-2.108092 -3.21484,-3.21484 -1.05405,-0.527023 -2.84593,-0.895939 -1.79188,-0.368916 -3.79456,-0.368916 -3.26754,0 -5.11212,0.948642 -2.3189,1.15945 -2.3189,3.636458 0,1.686473 0.94864,3.109435 1.21215,1.791878 3.21484,1.791878 z"
     style="fill:#ffffff;stroke-width:4.49167204"
     id="path36" /></g><g
   style="stroke:none"
   inkscape:groupmode="layer"
   inkscape:label="Layer 1"
   transform="translate(-124.45842,-382.56325)"
   id="layer1"><rect
     x="105.64585"
     y="378.92615"
     display="none"
     width="488"
     height="108.699"
     id="rect12"
     style="fill:#4b8bc9;stroke:none;display:none" /><path
     id="path1948_4"
     inkscape:connector-curvature="0"
     inkscape:export-ydpi="90"
     inkscape:export-xdpi="90"
     inkscape:export-filename="/home/brain/Pulpit/PyConPL2008/projekty-loga/3.png"
     d="m 178.21985,385.61915 c -4.036,0.021 -7.89,0.363 -11.28,0.963 -9.98999,1.771 -11.804,5.459 -11.804,12.271 v 8.996 h 23.606 v 2.999 h -23.606 -8.859 c -6.86,0 -12.86799,4.124 -14.748,11.969 -2.167,8.992 -2.264,14.603 0,23.992 1.678,6.981 5.686,11.968 12.546,11.968 h 8.117 v -10.785 c 0,-7.791 6.742,-14.664 14.748,-14.664 h 23.579 c 6.563,0 11.803,-5.404 11.803,-11.996 v -22.479 c 0,-6.397 -5.397,-11.203 -11.803,-12.271 -4.056,-0.674 -8.263,-0.981 -12.299,-0.963 l 0,0 0,0 z m -12.766,7.237 c 2.438,0 4.43,2.021 4.43,4.513 0,2.479 -1.99199,4.484 -4.43,4.484 -2.447,0 -4.43,-2.005 -4.43,-4.484 0,-2.49 1.983,-4.513 4.43,-4.513 z"
     style="fill:#ffffff;stroke:none" /><path
     id="path1950_5"
     inkscape:connector-curvature="0"
     inkscape:export-ydpi="90"
     inkscape:export-xdpi="90"
     inkscape:export-filename="/home/brain/Pulpit/PyConPL2008/projekty-loga/3.png"
     d="m 205.26585,410.85015 v 10.479 c 0,8.127 -6.89,14.967 -14.748,14.967 h -23.579 c -6.458,0 -11.804,5.528 -11.804,11.996 v 22.479 c 0,6.396 5.563,10.161 11.804,11.996 7.473,2.19 14.638,2.594 23.579,0 5.943,-1.728 11.803,-5.188 11.803,-11.996 v -8.997 h -23.579 v -2.998 h 23.579 11.804 c 6.861,0 9.417,-4.786 11.803,-11.969 2.465,-7.396 2.36,-14.512 0,-23.992 -1.695,-6.83 -4.934,-11.968 -11.803,-11.968 l -8.859,0.003 0,0 z m -13.262,56.925 c 2.447,0 4.43,2.005 4.43,4.479 0,2.488 -1.982,4.519 -4.43,4.519 -2.438,0 -4.43,-2.023 -4.43,-4.519 0.001,-2.474 1.992,-4.479 4.43,-4.479 z"
     style="fill:#ce0000;stroke:none" /><g
     id="g16"
     style="stroke:none"
     transform="translate(35.724855,-0.09984533)"><path
       display="none"
       d="m 491.35,458.945 h -14.183 c -4.148,0 -7.478,-0.557 -9.979,-1.677 -3.177,-1.429 -5.457,-3.887 -6.84,-7.371 -0.521,-1.341 -0.887,-2.625 -1.093,-3.854 -0.206,-1.229 -0.308,-2.647 -0.308,-4.256 v -29.761 h 10.091 v 29.351 c 0,1.34 0.13,2.514 0.393,3.518 0.261,1.006 0.729,2 1.401,2.981 0.935,1.432 2.018,2.368 3.252,2.813 1.23,0.446 2.802,0.671 4.708,0.671 h 12.558 v 7.585 z"
       id="path18"
       style="fill:#ce0000;stroke:none;display:none"
       inkscape:connector-curvature="0" /></g><path
     id="path3180"
     sodipodi:nodetypes="csccccccccccsccccsccccscsccccccccscccccsssccccccccsccccccssccccccscscsscccssssssscccccsccccccccccc"
     inkscape:connector-curvature="0"
     d="m 282.71386,426.86115 c 0,4.279 -1.48001,7.926 -4.44101,10.938 -2.95999,3.013 -6.491,4.521 -10.591,4.521 h -18.449 v 16.842 h -10.746 v -48.321 h 29.754 c 4.638,0 8.303,1.773 10.994,5.317 2.32,3.085 3.479,6.65 3.479,10.703 l 0,0 z m -12.113,-0.623 c 0,-2.066 -0.765,-3.793 -2.29701,-5.179 -1.531,-1.38 -3.291,-2.07 -5.279,-2.07 h -13.85399 v 14.979 h 14.16399 c 2.02801,0 3.74601,-0.729 5.154,-2.202 1.40801,-1.478 2.11201,-3.317 2.11201,-5.528 l 0,0 0,0 z m 47.832,-2.831 -0.061,37.275 c 0,1.563 -0.291,2.979 -0.871,4.243 -0.579,1.266 -1.346,2.383 -2.298,3.351 -1.448,1.375 -2.938,2.315 -4.471,2.83 -1.533,0.505 -3.375,0.759 -5.529,0.759 h -16.896 v -7.456 h 17.579 c 0.787,0 1.533,-0.303 2.236,-0.9 0.953,-0.821 1.429,-1.794 1.429,-2.896 v -1.381 h -9.93901 c -1.90499,0 -3.521,-0.241 -4.846,-0.727 -1.325,-0.479 -2.608,-1.412 -3.851,-2.797 -2.195,-2.393 -3.29199,-5.358 -3.29199,-8.903 v -23.399 h 9.06999 l -0.062,22.921 c 0,0.917 0.052,1.611 0.155,2.066 0.104,0.465 0.393,0.969 0.869,1.519 0.476,0.553 1.024,0.932 1.64601,1.139 0.62099,0.207 1.387,0.313 2.298,0.313 h 7.891 v -27.957 l 8.943,0 0,0 z m 41.84199,35.758 h -19.19299 c -1.94601,0 -3.87201,-0.299 -5.77801,-0.896 -3.685,-1.242 -6.605,-4.1 -8.75799,-8.562 -1.94601,-4.051 -2.919,-8.768 -2.919,-14.149 0,-5.195 0.87,-9.799 2.608,-13.805 1.90499,-4.418 4.618,-7.433 8.139,-9.046 2.734,-1.243 5.529,-1.856 8.386,-1.856 h 17.393 v 9.246 h -18.078 c -2.93901,0 -5.07201,1.771 -6.39801,5.316 -1.035,2.757 -1.553,6.371 -1.553,10.833 0,3.775 0.663,6.976 1.98701,9.597 1.53399,3.082 3.687,4.624 6.45999,4.624 l 17.702,-0.066 v 8.767 h 0.002 v -0.003 z m 41.082,-18.017 c 0,6.216 -1.781,10.979 -5.344,14.294 -3.271,3.035 -7.723,4.549 -13.35399,4.549 -5.638,0 -10.00201,-1.375 -13.104,-4.137 -3.604,-3.179 -5.404,-8.123 -5.404,-14.849 0,-5.612 1.939,-10.03 5.838,-13.253 3.479,-2.897 7.768,-4.35 12.859,-4.35 5.591,0 10.072,1.558 13.445,4.659 3.377,3.112 5.064,7.474 5.064,13.087 l 0,0 0,0 z m -9.629,-0.069 c 0,-2.9 -0.816,-5.328 -2.453,-7.282 -1.637,-1.958 -3.861,-2.935 -6.678,-2.935 -2.567,0 -4.689,1.001 -6.36599,2.998 -1.674,2.007 -2.517,4.521 -2.517,7.561 0,3.494 0.849,6.276 2.545,8.354 1.699,2.071 3.895,3.104 6.586,3.104 3.063,0 5.343,-1.082 6.834,-3.247 1.367,-1.971 2.049,-4.825 2.049,-8.553 l 0,0 z m 44.551,18.086 h -8.633 v -23.538 c 0,-0.599 -0.126,-1.14 -0.374,-1.623 -0.25,-0.48 -0.601,-0.955 -1.056,-1.413 -0.828,-0.78 -1.779,-1.174 -2.856,-1.174 h -8.448 v 27.752 h -8.637 v -35.761 h 16.524 c 2.938,0 5.06901,0.184 6.39801,0.552 2.07299,0.561 3.729,1.773 4.974,3.659 1.40199,2.208 2.11099,4.629 2.11099,7.254 v 24.297 l -0.003,-0.005 0,0 z"
     style="fill:#ffffff;stroke:none" /></g><path
   fill="#CE0000"
   d="M364.683,33.688c-2.688-3.544-6.354-5.314-10.991-5.314h-29.757v48.318h10.746V59.85h18.448  c4.104,0,7.631-1.512,10.592-4.521c2.961-3.018,4.441-6.662,4.441-10.941C368.162,40.336,367.002,36.77,364.683,33.688z   M353.938,49.292c-1.405,1.473-3.127,2.205-5.151,2.205H334.62v-14.98h13.854c1.988,0,3.748,0.69,5.279,2.07  c1.531,1.386,2.297,3.112,2.297,5.179C356.049,45.975,355.345,47.815,353.938,49.292z"
   id="path34"
   style="stroke:none;stroke-opacity:1" /><g
   id="g36"
   style="stroke:none;stroke-opacity:1"><g
     id="XMLID_1_"
     style="stroke:none;stroke-opacity:1"><g
       id="g39"
       style="stroke:none;stroke-opacity:1"><rect
         x="372.428"
         y="27.666"
         fill="#CE0000"
         width="10.16"
         height="50.331"
         id="rect41"
         style="stroke:none;stroke-opacity:1" /></g></g></g><g
   id="g30"
   enable-background="new    "
   style="stroke:none"><path
     style="fill:#ffffff;stroke:none"
     inkscape:connector-curvature="0"
     id="path32"
     d="m 393.047,52.831 c -0.132,0 -0.315,-0.099 -0.555,-0.294 -2.086,-1.722 -3.125,-3.842 -3.125,-6.357 0,-1.567 0.412,-3.258 1.244,-5.079 0.776,-1.679 1.739,-3.105 2.891,-4.281 0.261,-0.279 0.476,-0.423 0.634,-0.423 0.132,0 0.271,0.092 0.416,0.274 0.079,0.11 0.492,0.504 1.229,1.175 0.658,0.603 0.987,0.935 0.987,1.007 0,-0.14 -0.337,0.339 -1.009,1.438 -0.672,1.099 -1.01,2.241 -1.01,3.433 0,0.951 0.494,1.962 1.478,3.033 0.983,1.067 1.479,1.614 1.479,1.646 0,0.238 -0.33,0.638 -0.99,1.196 -0.436,0.351 -0.868,0.7 -1.308,1.049 -0.396,0.393 -0.8,0.791 -1.204,1.196 -0.682,0.659 -1.064,0.987 -1.157,0.987 z" /></g><path
   inkscape:connector-curvature="0"
   id="path3041"
   style="fill:#ffffff;stroke:none"
   d="m 412.75789,77.997002 -10.21982,0 0,-38.052516 10.21982,0 0,38.052516" /><g
   style="fill:#ffffff;stroke:none"
   id="text3015" /><text
   xml:space="preserve"
   style="font-style:normal;font-variant:normal;font-weight:bold;font-stretch:normal;font-size:32px;line-height:125%;font-family:Denmark;-inkscape-font-specification:'Denmark Bold';letter-spacing:0px;word-spacing:0px;fill:#000000;fill-opacity:1;stroke:none;stroke-width:1px;stroke-linecap:butt;stroke-linejoin:miter;stroke-opacity:1"
   x="143.5"
   y="154.563"
   id="text3458"><tspan
     sodipodi:role="line"
     id="tspan3460"
     x="143.5"
     y="154.563" /></text>

</svg>